<svg width="18" height="12" viewBox="0 0 18 12" fill="none" xmlns="http://www.w3.org/2000/svg">
<g id="Men&#195;&#186;">
<path id="Vector" d="M7 11C7 11.5523 7.44772 12 8 12H17C17.5523 12 18 11.5523 18 11C18 10.4477 17.5523 10 17 10H8C7.44771 10 7 10.4477 7 11ZM3 6C3 6.55228 3.44772 7 4 7H17C17.5523 7 18 6.55228 18 6C18 5.44772 17.5523 5 17 5H4C3.44772 5 3 5.44772 3 6ZM1 0C0.447716 0 0 0.447715 0 1C0 1.55228 0.447715 2 1 2H17C17.5523 2 18 1.55228 18 1C18 0.447715 17.5523 0 17 0H1Z" fill="white"/>
</g>
</svg>
