<svg width="53" height="53" viewBox="0 0 53 53" fill="none" xmlns="http://www.w3.org/2000/svg">
<g id="Iconos Redes Sociales">
<path id="Vector" d="M26.5 0C11.925 0 0 11.9463 0 26.6596C0 39.9629 9.69899 51.0045 22.366 53V34.3755H15.635V26.6596H22.366V20.7796C22.366 14.1014 26.3145 10.4297 32.383 10.4297C35.2715 10.4297 38.2925 10.9352 38.2925 10.9352V17.507H34.9535C31.6675 17.507 30.634 19.5557 30.634 21.6576V26.6596H38.001L36.8085 34.3755H30.634V53C36.8785 52.0098 42.5648 48.8109 46.6663 43.9806C50.7677 39.1503 53.0141 33.007 52.9999 26.6596C52.9999 11.9463 41.075 0 26.5 0Z" fill="#553000"/>
</g>
</svg>
