<svg width="53" height="53" viewBox="0 0 53 53" fill="none" xmlns="http://www.w3.org/2000/svg">
<g id="Iconos Redes Sociales">
<path id="Vector" d="M52.9922 9.74245C51.0417 10.629 48.9393 11.2116 46.7608 11.4903C48.9899 10.1477 50.7124 8.01995 51.523 5.46153C49.4206 6.72807 47.0901 7.61465 44.633 8.12127C42.6319 5.94281 39.8201 4.67627 36.6285 4.67627C30.6757 4.67627 25.8122 9.5398 25.8122 15.5432C25.8122 16.4045 25.9135 17.2404 26.0908 18.0256C17.073 17.5697 9.04313 13.2381 3.69831 6.67741C2.76107 8.27325 2.22912 10.1477 2.22912 12.1235C2.22912 15.8979 4.12893 19.2415 7.06732 21.1413C5.26882 21.1413 3.59699 20.6347 2.12779 19.8748C2.12779 19.8748 2.12779 19.8748 2.12779 19.9508C2.12779 25.2196 5.87677 29.6272 10.8416 30.6151C9.92971 30.8684 8.96713 30.9951 7.97923 30.9951C7.29529 30.9951 6.61136 30.9191 5.95276 30.7924C7.32063 35.0733 11.2976 38.265 16.0851 38.341C12.3868 41.2794 7.70059 43.0019 2.58375 43.0019C1.7225 43.0019 0.86125 42.9512 0 42.8499C4.81287 45.9403 10.5376 47.7388 16.6677 47.7388C36.6285 47.7388 47.5967 31.1724 47.5967 16.8098C47.5967 16.3285 47.5967 15.8725 47.5714 15.3912C49.6992 13.8714 51.523 11.9462 52.9922 9.74245Z" fill="#553000"/>
</g>
</svg>
